# Blender v2.76 (sub 0) OBJ File: 'OutsidePicnic.blend'
# www.blender.org
mtllib road.mtl
o Road.001_Plane.001
v 411.638885 8.535243 404.606110
v 513.860352 8.535243 404.606110
v 411.638885 8.535243 334.858917
v 513.860352 8.535243 334.858917
v 411.638885 2.565410 404.606110
v 513.860352 2.565410 404.606110
v 411.638885 2.565410 334.858917
v 513.860352 2.565410 334.858917
v 411.638885 2.845898 404.606110
v 513.860352 2.845898 404.606110
v 411.638885 2.845898 334.858917
v 513.860352 2.845898 334.858917
v 309.417419 8.535243 404.606110
v 411.638885 8.535243 404.606110
v 309.417419 8.535243 334.858917
v 411.638885 8.535243 334.858917
v 309.417419 2.565410 404.606110
v 411.638885 2.565410 404.606110
v 309.417419 2.565410 334.858917
v 411.638885 2.565410 334.858917
v 309.417419 2.845898 404.606110
v 411.638885 2.845898 404.606110
v 309.417419 2.845898 334.858917
v 411.638885 2.845898 334.858917
v 207.195953 8.535243 404.606110
v 309.417419 8.535243 404.606110
v 207.195953 8.535243 334.858917
v 309.417419 8.535243 334.858917
v 207.195953 2.565410 404.606110
v 309.417419 2.565410 404.606110
v 207.195953 2.565410 334.858917
v 309.417419 2.565410 334.858917
v 207.195953 2.845898 404.606110
v 309.417419 2.845898 404.606110
v 207.195953 2.845898 334.858917
v 309.417419 2.845898 334.858917
v 104.974487 8.535243 404.606110
v 207.195953 8.535243 404.606110
v 104.974487 8.535243 334.858917
v 207.195953 8.535243 334.858917
v 104.974487 2.565410 404.606110
v 207.195953 2.565410 404.606110
v 104.974487 2.565410 334.858917
v 207.195953 2.565410 334.858917
v 104.974487 2.845898 404.606110
v 207.195953 2.845898 404.606110
v 104.974487 2.845898 334.858917
v 207.195953 2.845898 334.858917
v 2.752991 8.535243 404.606110
v 104.974487 8.535243 404.606110
v 2.752991 8.535243 334.858917
v 104.974487 8.535243 334.858917
v 2.752991 2.565410 404.606110
v 104.974487 2.565410 404.606110
v 2.752991 2.565410 334.858917
v 104.974487 2.565410 334.858917
v 2.752991 2.845898 404.606110
v 104.974487 2.845898 404.606110
v 2.752991 2.845898 334.858917
v 104.974487 2.845898 334.858917
v -99.468445 8.535243 404.606110
v 2.752991 8.535243 404.606110
v -99.468445 8.535243 334.858917
v 2.752991 8.535243 334.858917
v -99.468445 2.565410 404.606110
v 2.752991 2.565410 404.606110
v -99.468445 2.565410 334.858917
v 2.752991 2.565410 334.858917
v -99.468445 2.845898 404.606110
v 2.752991 2.845898 404.606110
v -99.468445 2.845898 334.858917
v 2.752991 2.845898 334.858917
v -201.689941 8.535243 404.606110
v -99.468445 8.535243 404.606110
v -201.689941 8.535243 334.858917
v -99.468445 8.535243 334.858917
v -201.689941 2.565410 404.606110
v -99.468445 2.565410 404.606110
v -201.689941 2.565410 334.858917
v -99.468445 2.565410 334.858917
v -201.689941 2.845898 404.606110
v -99.468445 2.845898 404.606110
v -201.689941 2.845898 334.858917
v -99.468445 2.845898 334.858917
v -303.911438 8.535243 404.606110
v -201.689941 8.535243 404.606110
v -303.911438 8.535243 334.858917
v -201.689941 8.535243 334.858917
v -303.911438 2.565410 404.606110
v -201.689941 2.565410 404.606110
v -303.911438 2.565410 334.858917
v -201.689941 2.565410 334.858917
v -303.911438 2.845898 404.606110
v -201.689941 2.845898 404.606110
v -303.911438 2.845898 334.858917
v -201.689941 2.845898 334.858917
v -406.132874 8.535243 404.606110
v -303.911438 8.535243 404.606110
v -406.132874 8.535243 334.858917
v -303.911438 8.535243 334.858917
v -406.132874 2.565410 404.606110
v -303.911438 2.565410 404.606110
v -406.132874 2.565410 334.858917
v -303.911438 2.565410 334.858917
v -406.132874 2.845898 404.606110
v -303.911438 2.845898 404.606110
v -406.132874 2.845898 334.858917
v -303.911438 2.845898 334.858917
v -508.354370 8.535243 404.606110
v -406.132874 8.535243 404.606110
v -508.354370 8.535243 334.858917
v -406.132874 8.535243 334.858917
v -508.354370 2.565410 404.606110
v -406.132874 2.565410 404.606110
v -508.354370 2.565410 334.858917
v -406.132874 2.565410 334.858917
v -508.354370 2.845898 404.606110
v -406.132874 2.845898 404.606110
v -508.354370 2.845898 334.858917
v -406.132874 2.845898 334.858917
vt 0.492447 0.000000
vt 0.492447 0.623134
vt 0.000000 0.623134
vt 0.664323 0.000000
vt 0.664323 0.623134
vt 0.836199 0.000000
vt 0.836199 0.623134
vt 1.000000 0.000000
vt 1.000000 0.500000
vt 1.000000 1.000000
vt 0.836200 1.000000
vt 0.836199 0.500000
vt 0.000000 0.000000
vn 0.000000 1.000000 0.000000
vn 1.000000 0.000000 0.000000
vn -1.000000 0.000000 0.000000
vn 0.000000 0.000000 -1.000000
vn 0.000000 0.000000 1.000000
usemtl Material.006
s off
f 2/1/1 4/2/1 3/3/1
f 2/1/2 6/4/2 8/5/2
f 3/4/3 7/6/3 5/7/3
f 4/6/4 12/8/4 11/9/4
f 1/10/5 9/11/5 10/12/5
f 14/1/1 16/2/1 15/3/1
f 14/1/2 18/4/2 20/5/2
f 15/4/3 19/6/3 17/7/3
f 16/6/4 24/8/4 23/9/4
f 13/10/5 21/11/5 22/12/5
f 26/1/1 28/2/1 27/3/1
f 26/1/2 30/4/2 32/5/2
f 27/4/3 31/6/3 29/7/3
f 28/6/4 36/8/4 35/9/4
f 25/10/5 33/11/5 34/12/5
f 38/1/1 40/2/1 39/3/1
f 38/1/2 42/4/2 44/5/2
f 39/4/3 43/6/3 41/7/3
f 40/6/4 48/8/4 47/9/4
f 37/10/5 45/11/5 46/12/5
f 50/1/1 52/2/1 51/3/1
f 50/1/2 54/4/2 56/5/2
f 51/4/3 55/6/3 53/7/3
f 52/6/4 60/8/4 59/9/4
f 49/10/5 57/11/5 58/12/5
f 62/1/1 64/2/1 63/3/1
f 62/1/2 66/4/2 68/5/2
f 63/4/3 67/6/3 65/7/3
f 64/6/4 72/8/4 71/9/4
f 61/10/5 69/11/5 70/12/5
f 74/1/1 76/2/1 75/3/1
f 74/1/2 78/4/2 80/5/2
f 75/4/3 79/6/3 77/7/3
f 76/6/4 84/8/4 83/9/4
f 73/10/5 81/11/5 82/12/5
f 86/1/1 88/2/1 87/3/1
f 86/1/2 90/4/2 92/5/2
f 87/4/3 91/6/3 89/7/3
f 88/6/4 96/8/4 95/9/4
f 85/10/5 93/11/5 94/12/5
f 98/1/1 100/2/1 99/3/1
f 98/1/2 102/4/2 104/5/2
f 99/4/3 103/6/3 101/7/3
f 100/6/4 108/8/4 107/9/4
f 97/10/5 105/11/5 106/12/5
f 110/1/1 112/2/1 111/3/1
f 110/1/2 114/4/2 116/5/2
f 111/4/3 115/6/3 113/7/3
f 112/6/4 120/8/4 119/9/4
f 109/10/5 117/11/5 118/12/5
f 1/13/1 2/1/1 3/3/1
f 4/2/2 2/1/2 8/5/2
f 1/5/3 3/4/3 5/7/3
f 3/12/4 4/6/4 11/9/4
f 2/9/5 1/10/5 10/12/5
f 13/13/1 14/1/1 15/3/1
f 16/2/2 14/1/2 20/5/2
f 13/5/3 15/4/3 17/7/3
f 15/12/4 16/6/4 23/9/4
f 14/9/5 13/10/5 22/12/5
f 25/13/1 26/1/1 27/3/1
f 28/2/2 26/1/2 32/5/2
f 25/5/3 27/4/3 29/7/3
f 27/12/4 28/6/4 35/9/4
f 26/9/5 25/10/5 34/12/5
f 37/13/1 38/1/1 39/3/1
f 40/2/2 38/1/2 44/5/2
f 37/5/3 39/4/3 41/7/3
f 39/12/4 40/6/4 47/9/4
f 38/9/5 37/10/5 46/12/5
f 49/13/1 50/1/1 51/3/1
f 52/2/2 50/1/2 56/5/2
f 49/5/3 51/4/3 53/7/3
f 51/12/4 52/6/4 59/9/4
f 50/9/5 49/10/5 58/12/5
f 61/13/1 62/1/1 63/3/1
f 64/2/2 62/1/2 68/5/2
f 61/5/3 63/4/3 65/7/3
f 63/12/4 64/6/4 71/9/4
f 62/9/5 61/10/5 70/12/5
f 73/13/1 74/1/1 75/3/1
f 76/2/2 74/1/2 80/5/2
f 73/5/3 75/4/3 77/7/3
f 75/12/4 76/6/4 83/9/4
f 74/9/5 73/10/5 82/12/5
f 85/13/1 86/1/1 87/3/1
f 88/2/2 86/1/2 92/5/2
f 85/5/3 87/4/3 89/7/3
f 87/12/4 88/6/4 95/9/4
f 86/9/5 85/10/5 94/12/5
f 97/13/1 98/1/1 99/3/1
f 100/2/2 98/1/2 104/5/2
f 97/5/3 99/4/3 101/7/3
f 99/12/4 100/6/4 107/9/4
f 98/9/5 97/10/5 106/12/5
f 109/13/1 110/1/1 111/3/1
f 112/2/2 110/1/2 116/5/2
f 109/5/3 111/4/3 113/7/3
f 111/12/4 112/6/4 119/9/4
f 110/9/5 109/10/5 118/12/5
